# xmcd
#
# Track frame offsets: 
#        187
#        17262
#        35080
#        51112
#        63662
#        86567
#
# Disc length: 1377 seconds
#
# Revision: 1
# Processed by: cddbd v1.5.2PL0 Copyright (c) Steve Scherf et al.
# Submitted via: ExactAudioCopy v1.0b3
#
DISCID=46055f06
DTITLE=Various Artist - 爆走兄弟レッツ&ゴー!! WGP 超速テーマ・コレクションDASH
DYEAR=1997
DGENRE=Anime
TTITLE0=影山ヒロノブ - Get The World
TTITLE1=GANASIA - Grow up Potential ～夢に向かって～
TTITLE2=松宮麻衣子 - Tune-up Generation
TTITLE3=the VICTORYS - We are the Victorys
TTITLE4=レッツゴーBOYS and GIRLS - 今夜はイブ! ～1x8Version～
TTITLE5=影山ヒロノブ - GET THE World ～Version Xto～
EXTD=
EXTT0=
EXTT1=
EXTT2=
EXTT3=
EXTT4=
EXTT5=
PLAYORDER=
